<?xml version="1.0" encoding="utf-8"?>
<!-- Generator: Adobe Illustrator 27.5.0, SVG Export Plug-In . SVG Version: 6.00 Build 0)  -->
<svg version="1.1" id="Capa_1" xmlns="http://www.w3.org/2000/svg" xmlns:xlink="http://www.w3.org/1999/xlink" x="0px" y="0px"
	 viewBox="0 0 1080 1080" style="enable-background:new 0 0 1080 1080;" xml:space="preserve">
<style type="text/css">
	.st0{fill:#1D1E1B;}
	.st1{fill:#FCBF00;}
</style>
<g>
	<path class="st0" d="M245.23,405.56c-8.65-9.63-18.99-17.23-30.72-22.59h0c-12.19-5.56-25.2-8.38-38.68-8.38l-93.47,0.09v233.98
		l20.62-0.09v-46.89h74.3c12.98-0.19,25.52-3.02,37.27-8.38c4.1-1.87,8.11-4.07,11.91-6.54c26.78-17.33,42.76-46.72,42.76-78.62
		C269.2,444.99,260.69,422.76,245.23,405.56 M102.97,395.2h72.85c9.81,0,19.35,1.93,28.35,5.74c7.77,3.3,14.86,7.88,21.07,13.63
		c0.71,0.65,1.41,1.33,2.1,2.02c6.68,6.69,11.93,14.49,15.6,23.18c3.79,8.98,5.71,18.52,5.71,28.37c0,9.86-1.92,19.4-5.71,28.37
		c-3.66,8.68-8.91,16.48-15.6,23.18c-2.54,2.54-5.28,4.91-8.13,7.03c-4.63,3.45-9.69,6.35-15.03,8.61
		c-8.98,3.8-18.52,5.73-28.35,5.73h-72.85V395.2z"/>
	<path class="st0" d="M393.49,428.65c-51.64,0-93.64,40.99-93.64,91.38c0,50.39,42.01,91.39,93.64,91.39
		c51.63,0,93.64-40.99,93.64-91.39C487.13,469.65,445.12,428.65,393.49,428.65 M445.15,570.39c-6.73,6.56-14.54,11.7-23.23,15.28
		c-18.07,7.45-38.81,7.45-56.88,0c-8.7-3.59-16.51-8.73-23.22-15.28c-6.71-6.54-11.98-14.16-15.66-22.64
		c-3.81-8.77-5.73-18.1-5.73-27.71c0-9.61,1.93-18.94,5.73-27.71c3.68-8.48,8.94-16.1,15.66-22.64c6.7-6.54,14.52-11.68,23.22-15.28
		c9-3.71,18.57-5.6,28.44-5.6c9.87,0,19.44,1.88,28.44,5.6c8.7,3.59,16.51,8.73,23.22,15.28c6.71,6.55,11.98,14.17,15.65,22.64
		c3.8,8.77,5.73,18.09,5.73,27.71c0,9.62-1.93,18.95-5.73,27.71C457.13,556.23,451.86,563.84,445.15,570.39"/>
	<rect x="357.4" y="374.72" class="st1" width="72.17" height="20.61"/>
	<path class="st1" d="M411.77,520.04c0,10.1-8.19,18.28-18.28,18.28c-10.1,0-18.28-8.19-18.28-18.28c0-10.1,8.18-18.28,18.28-18.28
		C403.58,501.75,411.77,509.94,411.77,520.04"/>
	<rect x="530.09" y="374.59" class="st0" width="20.59" height="234.03"/>
	<path class="st0" d="M431.56,703.46c-3.05-0.93-5.46-2.16-7.25-3.7l2.73-6.12c1.74,1.37,3.87,2.49,6.4,3.36
		c2.52,0.87,5.06,1.3,7.61,1.3c3.15,0,5.51-0.5,7.06-1.52c1.55-1.01,2.33-2.34,2.33-4c0-1.21-0.44-2.21-1.3-3
		c-0.87-0.79-1.97-1.41-3.3-1.85c-1.34-0.45-3.16-0.95-5.46-1.52c-3.23-0.76-5.85-1.53-7.85-2.3c-2-0.77-3.72-1.97-5.15-3.61
		c-1.44-1.64-2.15-3.85-2.15-6.64c0-2.34,0.64-4.47,1.91-6.4c1.27-1.92,3.19-3.44,5.75-4.57c2.57-1.13,5.71-1.7,9.43-1.7
		c2.58,0,5.13,0.33,7.63,0.97c2.5,0.65,4.66,1.57,6.49,2.79l-2.49,6.12c-1.86-1.09-3.8-1.92-5.82-2.48
		c-2.02-0.57-3.98-0.85-5.88-0.85c-3.11,0-5.42,0.53-6.94,1.58c-1.52,1.05-2.27,2.45-2.27,4.18c0,1.21,0.43,2.2,1.3,2.97
		c0.87,0.77,1.97,1.37,3.3,1.82c1.33,0.44,3.16,0.95,5.46,1.52c3.15,0.73,5.74,1.48,7.76,2.27c2.02,0.79,3.75,1.99,5.18,3.6
		c1.43,1.62,2.15,3.8,2.15,6.55c0,2.35-0.64,4.47-1.91,6.36c-1.27,1.9-3.2,3.42-5.79,4.55c-2.59,1.13-5.74,1.7-9.45,1.7
		C437.77,704.85,434.61,704.39,431.56,703.46"/>
	<path class="st0" d="M490.81,702.49c-0.89,0.73-1.97,1.27-3.24,1.63c-1.27,0.37-2.62,0.54-4.03,0.54c-3.56,0-6.3-0.93-8.25-2.79
		c-1.93-1.86-2.91-4.56-2.91-8.12v-15.57h-5.33v-6.06h5.33v-7.4h7.58v7.4h8.67v6.06h-8.67v15.39c0,1.58,0.39,2.78,1.15,3.61
		c0.77,0.83,1.88,1.24,3.34,1.24c1.69,0,3.11-0.44,4.24-1.34L490.81,702.49z"/>
	<path class="st0" d="M534.45,671.88v32.36h-7.22v-4.13c-1.21,1.46-2.73,2.58-4.55,3.37c-1.82,0.79-3.78,1.18-5.88,1.18
		c-4.33,0-7.73-1.2-10.22-3.61c-2.48-2.4-3.72-5.97-3.72-10.7v-18.49h7.58v17.45c0,2.91,0.66,5.08,1.97,6.52
		c1.31,1.43,3.18,2.15,5.61,2.15c2.71,0,4.86-0.84,6.45-2.52c1.6-1.68,2.4-4.09,2.4-7.25v-16.36H534.45z"/>
	<path class="st0" d="M582.15,659.27v44.97h-7.27v-4.19c-1.25,1.54-2.79,2.69-4.63,3.46c-1.84,0.76-3.87,1.15-6.09,1.15
		c-3.11,0-5.91-0.69-8.39-2.06c-2.49-1.37-4.44-3.32-5.85-5.85c-1.42-2.52-2.12-5.42-2.12-8.7s0.7-6.16,2.12-8.67
		c1.41-2.5,3.36-4.45,5.85-5.82c2.49-1.37,5.28-2.06,8.39-2.06c2.14,0,4.1,0.37,5.88,1.09c1.78,0.73,3.3,1.82,4.55,3.27v-16.6
		H582.15z M569.97,696.94c1.46-0.83,2.61-2.01,3.46-3.55c0.85-1.54,1.27-3.32,1.27-5.33c0-2.02-0.43-3.8-1.27-5.33
		c-0.85-1.54-2-2.72-3.46-3.55c-1.46-0.83-3.09-1.24-4.91-1.24c-1.82,0-3.46,0.41-4.91,1.24c-1.46,0.83-2.61,2.01-3.46,3.55
		c-0.85,1.53-1.27,3.31-1.27,5.33c0,2.02,0.43,3.8,1.27,5.33c0.85,1.53,2,2.72,3.46,3.55c1.46,0.83,3.09,1.24,4.91,1.24
		C566.88,698.18,568.51,697.77,569.97,696.94"/>
	<path class="st0" d="M598.51,665.24c-0.93-0.86-1.39-1.95-1.39-3.24c0-1.29,0.46-2.37,1.39-3.24c0.93-0.87,2.08-1.31,3.46-1.31
		c1.37,0,2.52,0.42,3.45,1.24c0.93,0.83,1.4,1.87,1.4,3.12c0,1.33-0.46,2.45-1.36,3.36c-0.91,0.91-2.07,1.36-3.49,1.36
		C600.6,666.54,599.44,666.11,598.51,665.24 M598.15,671.88h7.58v32.36h-7.58V671.88z"/>
	<path class="st0" d="M627.42,702.55c-2.63-1.41-4.68-3.38-6.15-5.91c-1.47-2.53-2.21-5.39-2.21-8.58c0-3.2,0.74-6.04,2.21-8.55
		c1.47-2.5,3.52-4.46,6.15-5.88c2.63-1.41,5.58-2.12,8.85-2.12c3.31,0,6.29,0.71,8.91,2.12c2.62,1.42,4.68,3.37,6.15,5.88
		c1.47,2.5,2.21,5.35,2.21,8.55c0,3.19-0.74,6.05-2.21,8.58c-1.47,2.52-3.53,4.49-6.15,5.91c-2.63,1.42-5.6,2.12-8.91,2.12
		C633,704.67,630.05,703.96,627.42,702.55 M643.19,695.4c1.82-1.86,2.72-4.3,2.72-7.33c0-3.03-0.91-5.48-2.72-7.34
		c-1.82-1.86-4.12-2.79-6.91-2.79c-2.79,0-5.08,0.93-6.88,2.79c-1.8,1.86-2.7,4.3-2.7,7.34c0,3.03,0.9,5.47,2.7,7.33
		c1.8,1.86,4.09,2.79,6.88,2.79C639.06,698.18,641.36,697.25,643.19,695.4"/>
	<path class="st0" d="M742.88,563.81c-1.66,2.05-3.4,4.04-5.28,5.92c-6.7,6.66-14.5,11.89-23.17,15.54
		c-18.03,7.58-38.71,7.58-56.75,0c-8.68-3.65-16.48-8.88-23.17-15.54c-6.7-6.67-11.96-14.42-15.63-23.05
		c-2.38-5.61-4.04-11.49-4.93-17.48c-0.02-0.17-0.05-0.34-0.07-0.51h165.24l0.3-6.04c0.07-1.31,0.1-2.72,0.1-4.19
		c0-1.5-0.03-2.87-0.1-4.17c-2.21-49.79-43.22-88.79-93.36-88.79c-50.15,0-91.15,38.99-93.36,88.75c-0.07,1.33-0.1,2.71-0.1,4.21
		c0,1.5,0.03,2.88,0.1,4.16c0.12,2.86,0.38,5.67,0.75,8.35c6.2,45.86,46.02,80.45,92.61,80.45c28.5,0,54.85-12.87,72.32-34.12
		L742.88,563.81z M618.88,490.25c3.66-8.63,8.92-16.38,15.63-23.04c6.7-6.67,14.5-11.9,23.17-15.54c18.02-7.6,38.71-7.6,56.75,0
		c8.67,3.64,16.47,8.87,23.17,15.54c6.7,6.66,11.96,14.42,15.63,23.05c2.45,5.76,4.13,11.8,5.01,17.98H613.87
		C614.74,502.06,616.42,496.02,618.88,490.25"/>
	<path class="st0" d="M976.41,428.57l0.04,32.02c-17.62-22.11-44.67-35.19-73.13-35.19c-51.47,0-93.35,41.73-93.35,93.02
		c0,51.29,41.88,93.02,93.35,93.02c28.48,0,55.54-13.09,73.16-35.22v32.38H997V428.57H976.41z M851.82,569.73
		c-6.69-6.67-11.94-14.43-15.6-23.07c-3.8-8.94-5.72-18.44-5.72-28.23c0-9.8,1.93-19.3,5.72-28.24c3.66-8.63,8.91-16.39,15.6-23.06
		c6.69-6.67,14.48-11.9,23.15-15.56c8.97-3.78,18.5-5.7,28.34-5.7c9.83,0,19.36,1.92,28.34,5.7c8.67,3.66,16.46,8.89,23.15,15.56
		c6.69,6.67,11.94,14.43,15.61,23.06c3.79,8.93,5.71,18.43,5.71,28.24c0,9.8-1.92,19.3-5.71,28.23c-3.66,8.64-8.91,16.4-15.61,23.07
		c-6.68,6.66-14.47,11.89-23.15,15.55c-18.02,7.59-38.68,7.59-56.68,0C866.3,581.62,858.51,576.39,851.82,569.73"/>
</g>
</svg>
