<?xml version="1.0" encoding="utf-8"?>
<!-- Generator: Adobe Illustrator 27.5.0, SVG Export Plug-In . SVG Version: 6.00 Build 0)  -->
<svg version="1.1" id="Capa_1" xmlns="http://www.w3.org/2000/svg" xmlns:xlink="http://www.w3.org/1999/xlink" x="0px" y="0px"
	 viewBox="0 0 1080 1080" style="enable-background:new 0 0 1080 1080;" xml:space="preserve">
<style type="text/css">
	.st0{fill:none;stroke:#FCBF00;stroke-width:3;stroke-miterlimit:10;}
	.st1{fill:none;stroke:#FFFFFF;stroke-width:2;stroke-miterlimit:10;}
</style>
<g>
	<rect x="446.42" y="351.6" class="st0" width="187.14" height="53.44"/>
	<path class="st1" d="M782.81,728.4C782.81,728.4,782.82,728.4,782.81,728.4c0-130.65-108.93-236.96-242.81-236.96
		c-133.91,0-242.82,106.29-242.82,236.95c0,0,0,0.01,0,0.01"/>
	<path class="st1" d="M350.55,728.4c0-24.91,5.01-49.1,14.86-71.84c9.54-21.99,23.18-41.75,40.61-58.71
		c17.37-16.96,37.65-30.29,60.21-39.62c23.34-9.62,48.15-14.52,73.75-14.52s50.41,4.88,73.75,14.52
		c22.56,9.31,42.81,22.64,60.21,39.62c17.4,16.98,31.07,36.74,40.58,58.71c9.85,22.74,14.86,46.9,14.86,71.84"/>
	<path class="st0" d="M587.4,728.4c-0.01-26.18-21.24-47.41-47.4-47.39c-26.18,0-47.39,21.2-47.4,47.39"/>
</g>
</svg>
